<?xml version="1.0" encoding="utf-8"?>
<!-- Generator: Adobe Illustrator 26.2.1, SVG Export Plug-In . SVG Version: 6.00 Build 0)  -->
<svg version="1.1"
	 id="Layer_1" xmlns:cc="http://creativecommons.org/ns#" xmlns:dc="http://purl.org/dc/elements/1.1/" xmlns:inkscape="http://www.inkscape.org/namespaces/inkscape" xmlns:rdf="http://www.w3.org/1999/02/22-rdf-syntax-ns#" xmlns:sodipodi="http://sodipodi.sourceforge.net/DTD/sodipodi-0.dtd" xmlns:svg="http://www.w3.org/2000/svg"
	 xmlns="http://www.w3.org/2000/svg" xmlns:xlink="http://www.w3.org/1999/xlink" x="0px" y="0px" viewBox="0 0 202 80.8"
	 style="enable-background:new 0 0 202 80.8;" xml:space="preserve">
<style type="text/css">
	.st0{display:none;opacity:0.3;}
	.st1{opacity:0.3;}
	.st2{display:inline;}
	.st3{display:inline;clip-path:url(#SVGID_00000001623554046443890870000017286698893181977487_);fill:#BE2F31;}
	.st4{clip-path:url(#SVGID_00000008864437102424992240000012432301255617184159_);fill:#A5132A;}
	.st5{clip-path:url(#SVGID_00000008864437102424992240000012432301255617184159_);}
	.st6{fill:#A5132A;}
</style>
<sodipodi:namedview  bordercolor="#666666" borderopacity="1" fit-margin-bottom="1" fit-margin-left="1" fit-margin-right="1" fit-margin-top="1" gridtolerance="10" guidetolerance="10" id="namedview53" inkscape:current-layer="Layer_1" inkscape:cx="101.94501" inkscape:cy="32.114985" inkscape:pageopacity="0" inkscape:pageshadow="2" inkscape:window-height="681" inkscape:window-maximized="0" inkscape:window-width="1018" inkscape:window-x="0" inkscape:window-y="0" inkscape:zoom="0.39645207" objecttolerance="10" pagecolor="#ffffff" showgrid="false">
	</sodipodi:namedview>
<g>
	<g class="st0">
		<defs>
			<rect id="SVGID_1_" y="11.5" class="st1" width="200.1" height="57.7"/>
		</defs>
		<clipPath id="SVGID_00000127726486452186273370000000359125688801923987_" class="st2">
			<use xlink:href="#SVGID_1_"  style="overflow:visible;"/>
		</clipPath>
		<path style="display:inline;clip-path:url(#SVGID_00000127726486452186273370000000359125688801923987_);fill:#BE2F31;" d="
			M2.2,26.8c1.2,0,2.2-1,2.2-2.2c0-1.2-1-2.2-2.2-2.2S0,23.4,0,24.6C0,25.8,1,26.8,2.2,26.8"/>
		<path style="display:inline;clip-path:url(#SVGID_00000127726486452186273370000000359125688801923987_);fill:#BE2F31;" d="
			M7.6,51.6h25.4V11.5H7.6V51.6z M13,26.8c-1.2,0-2.2-1-2.2-2.2c0-1.2,1-2.2,2.2-2.2c1.2,0,2.2,1,2.2,2.2
			C15.2,25.8,14.2,26.8,13,26.8 M23.8,48.2c-1.2,0-2.2-1-2.2-2.2c0-1.2,1-2.2,2.2-2.2s2.2,1,2.2,2.2C26,47.2,25,48.2,23.8,48.2
			 M23.8,37.5c-1.2,0-2.2-1-2.2-2.2s1-2.2,2.2-2.2s2.2,1,2.2,2.2S25,37.5,23.8,37.5 M23.8,26.8c-1.2,0-2.2-1-2.2-2.2
			c0-1.2,1-2.2,2.2-2.2s2.2,1,2.2,2.2C26,25.8,25,26.8,23.8,26.8"/>
		<path style="display:inline;clip-path:url(#SVGID_00000127726486452186273370000000359125688801923987_);fill:#BE2F31;" d="M24,59
			c1.2,0,2.2-1,2.2-2.2c0-1.2-1-2.2-2.2-2.2s-2.2,1-2.2,2.2C21.8,58,22.8,59,24,59"/>
		
			<polygon style="display:inline;clip-path:url(#SVGID_00000127726486452186273370000000359125688801923987_);fill:#BE2F31;" points="
			48,39.5 50,39.5 50,51.2 48.3,51.2 41.8,42.9 41.8,51.2 39.8,51.2 39.8,39.5 41.7,39.5 48,47.6 		"/>
		<path style="display:inline;clip-path:url(#SVGID_00000127726486452186273370000000359125688801923987_);fill:#BE2F31;" d="
			M58.1,51.2v-1.1c-0.6,0.7-1.5,1.3-2.9,1.3c-1.7,0-3.1-1-3.1-2.7v0c0-1.9,1.5-2.8,3.6-2.8c1.1,0,1.8,0.2,2.4,0.4v-0.2
			c0-1.2-0.8-1.9-2.2-1.9c-1,0-1.7,0.2-2.5,0.6L52.9,43c1-0.4,1.9-0.7,3.4-0.7c2.6,0,3.9,1.4,3.9,3.7v5.2H58.1z M58.2,47.5
			c-0.5-0.2-1.2-0.4-2-0.4c-1.3,0-2,0.5-2,1.4v0c0,0.8,0.8,1.3,1.7,1.3c1.3,0,2.3-0.8,2.3-1.9V47.5z"/>
		<path style="display:inline;clip-path:url(#SVGID_00000127726486452186273370000000359125688801923987_);fill:#BE2F31;" d="
			M65.6,51.4c-1.3,0-2.6-0.5-3.7-1.3l0.9-1.4c1,0.7,2,1.1,2.9,1.1c0.9,0,1.4-0.4,1.4-1v0c0-0.7-0.9-0.9-2-1.2
			c-1.3-0.4-2.8-0.9-2.8-2.6v0c0-1.7,1.4-2.7,3.1-2.7c1.1,0,2.3,0.4,3.2,1l-0.8,1.4c-0.9-0.5-1.8-0.8-2.5-0.8
			c-0.8,0-1.2,0.4-1.2,0.9v0c0,0.6,1,0.9,2,1.2c1.3,0.4,2.7,1,2.7,2.6v0C68.8,50.5,67.4,51.4,65.6,51.4"/>
		<path style="display:inline;clip-path:url(#SVGID_00000127726486452186273370000000359125688801923987_);fill:#BE2F31;" d="
			M73,42.4v8.9c0,1.8-0.9,2.6-2.6,2.6c-0.4,0-0.6,0-1-0.1v-1.6c0.2,0,0.4,0,0.6,0c0.6,0,1-0.3,1-1.1v-8.8H73z M70.9,39.1h2.2V41
			h-2.2V39.1z"/>
		<path style="display:inline;clip-path:url(#SVGID_00000127726486452186273370000000359125688801923987_);fill:#BE2F31;" d="
			M79.9,51.4c-2.7,0-4.7-2.1-4.7-4.6c0-2.5,2-4.6,4.7-4.6c2.7,0,4.7,2.1,4.7,4.6C84.6,49.3,82.6,51.4,79.9,51.4 M79.9,44
			c-1.6,0-2.7,1.3-2.7,2.8c0,1.6,1.1,2.9,2.7,2.9c1.6,0,2.7-1.3,2.7-2.8C82.6,45.3,81.4,44,79.9,44"/>
		<path style="display:inline;clip-path:url(#SVGID_00000127726486452186273370000000359125688801923987_);fill:#BE2F31;" d="
			M88.7,51.2h-2v-8.8h2v1.4c0.6-0.8,1.4-1.6,2.8-1.6c2,0,3.1,1.3,3.1,3.4v5.6h-2v-5c0-1.4-0.7-2.2-1.9-2.2c-1.2,0-2,0.8-2,2.2V51.2z
			"/>
		<path style="display:inline;clip-path:url(#SVGID_00000127726486452186273370000000359125688801923987_);fill:#BE2F31;" d="
			M102.4,51.2v-1.1c-0.6,0.7-1.5,1.3-2.9,1.3c-1.7,0-3.1-1-3.1-2.7v0c0-1.9,1.5-2.8,3.6-2.8c1.1,0,1.8,0.2,2.4,0.4v-0.2
			c0-1.2-0.8-1.9-2.2-1.9c-1,0-1.7,0.2-2.5,0.6L97.2,43c1-0.4,1.9-0.7,3.4-0.7c2.6,0,3.9,1.4,3.9,3.7v5.2H102.4z M102.4,47.5
			c-0.5-0.2-1.2-0.4-2-0.4c-1.3,0-2,0.5-2,1.4v0c0,0.8,0.8,1.3,1.7,1.3c1.3,0,2.3-0.8,2.3-1.9V47.5z"/>
		
			<rect x="106.9" y="39" style="display:inline;clip-path:url(#SVGID_00000127726486452186273370000000359125688801923987_);fill:#BE2F31;" width="2" height="12.2"/>
		<path style="display:inline;clip-path:url(#SVGID_00000127726486452186273370000000359125688801923987_);fill:#BE2F31;" d="
			M116.6,51.4c-1.5,0-2.4-0.7-3-1.6v1.4h-2V39h2v4.8c0.7-0.9,1.6-1.7,3-1.7c2.1,0,4.1,1.7,4.1,4.6C120.7,49.7,118.7,51.4,116.6,51.4
			 M116.1,44c-1.4,0-2.6,1.1-2.6,2.8c0,1.7,1.2,2.8,2.6,2.8c1.4,0,2.5-1.1,2.5-2.8C118.6,45.1,117.5,44,116.1,44"/>
		<path style="display:inline;clip-path:url(#SVGID_00000127726486452186273370000000359125688801923987_);fill:#BE2F31;" d="
			M122.8,39.1h2.2V41h-2.2V39.1z M122.9,42.4h2v8.8h-2V42.4z"/>
		<path style="display:inline;clip-path:url(#SVGID_00000127726486452186273370000000359125688801923987_);fill:#BE2F31;" d="
			M132.5,51.4c-1.5,0-2.4-0.7-3-1.6v1.4h-2V39h2v4.8c0.7-0.9,1.6-1.7,3-1.7c2.1,0,4.1,1.7,4.1,4.6C136.6,49.7,134.6,51.4,132.5,51.4
			 M132.1,44c-1.4,0-2.6,1.1-2.6,2.8c0,1.7,1.2,2.8,2.6,2.8c1.4,0,2.5-1.1,2.5-2.8C134.6,45.1,133.4,44,132.1,44"/>
		
			<rect x="138.8" y="39" style="display:inline;clip-path:url(#SVGID_00000127726486452186273370000000359125688801923987_);fill:#BE2F31;" width="2" height="12.2"/>
		<path style="display:inline;clip-path:url(#SVGID_00000127726486452186273370000000359125688801923987_);fill:#BE2F31;" d="
			M143.5,39.1h2.2V41h-2.2V39.1z M143.6,42.4h2v8.8h-2V42.4z"/>
		<path style="display:inline;clip-path:url(#SVGID_00000127726486452186273370000000359125688801923987_);fill:#BE2F31;" d="
			M152.4,51.4c-2.7,0-4.7-2.1-4.7-4.6c0-2.5,2-4.6,4.7-4.6s4.7,2.1,4.7,4.6C157.2,49.3,155.2,51.4,152.4,51.4 M152.4,44
			c-1.6,0-2.7,1.3-2.7,2.8c0,1.6,1.1,2.9,2.7,2.9c1.6,0,2.7-1.3,2.7-2.8C155.1,45.3,154,44,152.4,44"/>
		<path style="display:inline;clip-path:url(#SVGID_00000127726486452186273370000000359125688801923987_);fill:#BE2F31;" d="
			M161.6,48.4c0,0.8,0.4,1.1,1.1,1.1c0.4,0,0.8-0.1,1.3-0.3v1.7c-0.5,0.3-1.1,0.5-1.8,0.5c-1.5,0-2.5-0.7-2.5-2.6v-4.6h-1.1v-1.7
			h1.1V40h2v2.4h2.4v1.7h-2.4V48.4z"/>
		<path style="display:inline;clip-path:url(#SVGID_00000127726486452186273370000000359125688801923987_);fill:#BE2F31;" d="
			M169.9,49.8c1,0,1.7-0.4,2.4-1.1l1.2,1.1c-0.8,1-2,1.7-3.6,1.7c-2.6,0-4.5-1.9-4.5-4.6c0-2.5,1.8-4.6,4.3-4.6
			c2.8,0,4.2,2.2,4.2,4.8c0,0.2,0,0.4,0,0.6h-6.5C167.6,49,168.6,49.8,169.9,49.8 M171.8,46.2c-0.1-1.3-0.9-2.3-2.2-2.3
			c-1.2,0-2.1,1-2.3,2.3H171.8z"/>
		
			<polygon style="display:inline;clip-path:url(#SVGID_00000127726486452186273370000000359125688801923987_);fill:#BE2F31;" points="
			184.1,51.2 181.8,51.2 179.1,47.4 177.9,48.7 177.9,51.2 175.9,51.2 175.9,39 177.9,39 177.9,46.3 181.6,42.4 184,42.4 180.5,46 
					"/>
		<path style="display:inline;clip-path:url(#SVGID_00000127726486452186273370000000359125688801923987_);fill:#BE2F31;" d="
			M189.3,49.8c1,0,1.7-0.4,2.4-1.1l1.2,1.1c-0.8,1-2,1.7-3.6,1.7c-2.6,0-4.5-1.9-4.5-4.6c0-2.5,1.8-4.6,4.3-4.6
			c2.8,0,4.2,2.2,4.2,4.8c0,0.2,0,0.4,0,0.6h-6.5C187,49,188,49.8,189.3,49.8 M191.2,46.2c-0.1-1.3-0.9-2.3-2.2-2.3
			c-1.2,0-2.1,1-2.3,2.3H191.2z"/>
		<path style="display:inline;clip-path:url(#SVGID_00000127726486452186273370000000359125688801923987_);fill:#BE2F31;" d="
			M197.7,48.4c0,0.8,0.4,1.1,1.1,1.1c0.5,0,0.8-0.1,1.3-0.3v1.7c-0.5,0.3-1.1,0.5-1.8,0.5c-1.5,0-2.5-0.7-2.5-2.6v-4.6h-1.1v-1.7
			h1.1V40h2v2.4h2.4v1.7h-2.4V48.4z"/>
		
			<polygon style="display:inline;clip-path:url(#SVGID_00000127726486452186273370000000359125688801923987_);fill:#BE2F31;" points="
			45.6,59.4 46.5,59.4 46.5,67.3 45.8,67.3 40.6,60.8 40.6,67.3 39.8,67.3 39.8,59.4 40.6,59.4 45.6,65.7 		"/>
		<path style="display:inline;clip-path:url(#SVGID_00000127726486452186273370000000359125688801923987_);fill:#BE2F31;" d="
			M49,62.6l-0.3-0.7c0.6-0.3,1.3-0.5,2.1-0.5c1.6,0,2.5,0.8,2.5,2.4v3.6h-0.8v-0.9c-0.4,0.5-1.1,1-2.1,1c-1.1,0-2.2-0.6-2.2-1.8
			c0-1.3,1-1.9,2.5-1.9c0.8,0,1.3,0.1,1.8,0.2v-0.2c0-1.1-0.6-1.6-1.8-1.6C50.1,62.1,49.5,62.3,49,62.6 M49.1,65.6
			c0,0.8,0.7,1.2,1.5,1.2c1.1,0,2-0.7,2-1.6v-0.6c-0.4-0.1-1-0.2-1.7-0.2C49.7,64.3,49.1,64.8,49.1,65.6"/>
		<path style="display:inline;clip-path:url(#SVGID_00000127726486452186273370000000359125688801923987_);fill:#BE2F31;" d="
			M56.4,65.7c0,0.7,0.4,1,1,1c0.3,0,0.5-0.1,0.9-0.2v0.8c-0.3,0.2-0.6,0.3-1.1,0.3c-0.9,0-1.7-0.5-1.7-1.7v-3.6h-0.8v-0.8h0.8v-1.8
			h0.9v1.8h1.9v0.8h-1.9V65.7z"/>
		<path style="display:inline;clip-path:url(#SVGID_00000127726486452186273370000000359125688801923987_);fill:#BE2F31;" d="
			M59.8,59.2h1v1h-1V59.2z M59.9,61.4h0.9v5.9h-0.9V61.4z"/>
		<path style="display:inline;clip-path:url(#SVGID_00000127726486452186273370000000359125688801923987_);fill:#BE2F31;" d="
			M65.5,67.5c-1.8,0-3.1-1.4-3.1-3.1c0-1.7,1.3-3.1,3.1-3.1c1.8,0,3.1,1.4,3.1,3.1C68.6,66.1,67.3,67.5,65.5,67.5 M65.5,62.1
			c-1.3,0-2.2,1-2.2,2.3s0.9,2.3,2.2,2.3c1.3,0,2.2-1,2.2-2.3C67.7,63.1,66.7,62.1,65.5,62.1"/>
		<path style="display:inline;clip-path:url(#SVGID_00000127726486452186273370000000359125688801923987_);fill:#BE2F31;" d="
			M71,67.3h-0.9v-5.9H71v1c0.4-0.6,1-1.2,2-1.2c1.4,0,2.3,1,2.3,2.4v3.7h-0.9v-3.4c0-1.1-0.6-1.8-1.6-1.8c-1,0-1.8,0.7-1.8,1.8V67.3
			z"/>
		<path style="display:inline;clip-path:url(#SVGID_00000127726486452186273370000000359125688801923987_);fill:#BE2F31;" d="
			M77.5,62.6l-0.3-0.7c0.6-0.3,1.3-0.5,2.1-0.5c1.6,0,2.5,0.8,2.5,2.4v3.6h-0.8v-0.9c-0.4,0.5-1.1,1-2.1,1c-1.1,0-2.2-0.6-2.2-1.8
			c0-1.3,1-1.9,2.5-1.9c0.8,0,1.3,0.1,1.8,0.2v-0.2c0-1.1-0.6-1.6-1.8-1.6C78.6,62.1,78.1,62.3,77.5,62.6 M77.6,65.6
			c0,0.8,0.7,1.2,1.5,1.2c1.1,0,2-0.7,2-1.6v-0.6c-0.4-0.1-1-0.2-1.7-0.2C78.3,64.3,77.6,64.8,77.6,65.6"/>
		
			<rect x="83.9" y="59" style="display:inline;clip-path:url(#SVGID_00000127726486452186273370000000359125688801923987_);fill:#BE2F31;" width="0.9" height="8.3"/>
		
			<polygon style="display:inline;clip-path:url(#SVGID_00000127726486452186273370000000359125688801923987_);fill:#BE2F31;" points="
			90.4,59.4 91.3,59.4 91.3,66.5 95.8,66.5 95.8,67.3 90.4,67.3 		"/>
		<path style="display:inline;clip-path:url(#SVGID_00000127726486452186273370000000359125688801923987_);fill:#BE2F31;" d="
			M97.3,59.2h1v1h-1V59.2z M97.4,61.4h0.9v5.9h-0.9V61.4z"/>
		<path style="display:inline;clip-path:url(#SVGID_00000127726486452186273370000000359125688801923987_);fill:#BE2F31;" d="
			M103.4,67.5c-1.1,0-1.8-0.6-2.3-1.3v1.1h-0.9V59h0.9v3.6c0.5-0.7,1.2-1.3,2.3-1.3c1.4,0,2.8,1.1,2.8,3.1
			C106.2,66.3,104.9,67.5,103.4,67.5 M103.3,62.1c-1.1,0-2.1,0.9-2.1,2.3c0,1.4,1,2.3,2.1,2.3c1.1,0,2.1-0.8,2.1-2.3
			C105.3,63,104.4,62.1,103.3,62.1"/>
		<path style="display:inline;clip-path:url(#SVGID_00000127726486452186273370000000359125688801923987_);fill:#BE2F31;" d="
			M108.7,67.3h-0.9v-5.9h0.9V63c0.4-1,1.3-1.7,2.4-1.6v0.9h-0.1c-1.3,0-2.3,0.9-2.3,2.7V67.3z"/>
		<path style="display:inline;clip-path:url(#SVGID_00000127726486452186273370000000359125688801923987_);fill:#BE2F31;" d="
			M112.5,62.6l-0.3-0.7c0.6-0.3,1.3-0.5,2.1-0.5c1.6,0,2.5,0.8,2.5,2.4v3.6h-0.8v-0.9c-0.4,0.5-1.1,1-2.1,1c-1.1,0-2.2-0.6-2.2-1.8
			c0-1.3,1-1.9,2.5-1.9c0.8,0,1.3,0.1,1.8,0.2v-0.2c0-1.1-0.6-1.6-1.8-1.6C113.6,62.1,113.1,62.3,112.5,62.6 M112.7,65.6
			c0,0.8,0.7,1.2,1.5,1.2c1.1,0,2-0.7,2-1.6v-0.6c-0.4-0.1-1-0.2-1.7-0.2C113.3,64.3,112.7,64.8,112.7,65.6"/>
		<path style="display:inline;clip-path:url(#SVGID_00000127726486452186273370000000359125688801923987_);fill:#BE2F31;" d="
			M119.7,67.3h-0.9v-5.9h0.9V63c0.4-1,1.3-1.7,2.4-1.6v0.9H122c-1.3,0-2.3,0.9-2.3,2.7V67.3z"/>
		<path style="display:inline;clip-path:url(#SVGID_00000127726486452186273370000000359125688801923987_);fill:#BE2F31;" d="
			M126.3,67.5c-0.5,1.2-1.1,1.7-2,1.7c-0.5,0-0.9-0.1-1.3-0.3l0.3-0.7c0.3,0.1,0.5,0.2,0.9,0.2c0.5,0,0.9-0.3,1.2-1.1l-2.7-5.9h1
			l2.1,4.9l1.9-4.9h0.9L126.3,67.5z"/>
		<path style="display:inline;clip-path:url(#SVGID_00000127726486452186273370000000359125688801923987_);fill:#BE2F31;" d="
			M136.3,67.5c-1.8,0-3.1-1.4-3.1-3.1c0-1.7,1.3-3.1,3.1-3.1c1.8,0,3.1,1.4,3.1,3.1C139.4,66.1,138.1,67.5,136.3,67.5 M136.3,62.1
			c-1.3,0-2.2,1-2.2,2.3s0.9,2.3,2.2,2.3c1.3,0,2.2-1,2.2-2.3C138.5,63.1,137.5,62.1,136.3,62.1"/>
		<path style="display:inline;clip-path:url(#SVGID_00000127726486452186273370000000359125688801923987_);fill:#BE2F31;" d="
			M144,61.5v0.8h-1.9v5.1h-0.9v-5.1h-0.8v-0.8h0.8v-0.5c0-1.3,0.6-2,1.8-2c0.4,0,0.7,0,1,0.2v0.8c-0.3-0.1-0.6-0.2-0.9-0.2
			c-0.7,0-1,0.4-1,1.3v0.5H144z"/>
		
			<polygon style="display:inline;clip-path:url(#SVGID_00000127726486452186273370000000359125688801923987_);fill:#BE2F31;" points="
			154.6,59.4 155.5,59.4 155.5,67.3 154.8,67.3 149.6,60.8 149.6,67.3 148.7,67.3 148.7,59.4 149.6,59.4 154.6,65.7 		"/>
		<path style="display:inline;clip-path:url(#SVGID_00000127726486452186273370000000359125688801923987_);fill:#BE2F31;" d="
			M160.3,67.5c-1.8,0-3.1-1.4-3.1-3.1c0-1.7,1.3-3.1,3.1-3.1c1.8,0,3.1,1.4,3.1,3.1C163.4,66.1,162.1,67.5,160.3,67.5 M160.3,62.1
			c-1.3,0-2.2,1-2.2,2.3s0.9,2.3,2.2,2.3c1.3,0,2.2-1,2.2-2.3C162.5,63.1,161.5,62.1,160.3,62.1"/>
		<path style="display:inline;clip-path:url(#SVGID_00000127726486452186273370000000359125688801923987_);fill:#BE2F31;" d="
			M165.9,67.3H165v-5.9h0.9V63c0.4-1,1.3-1.7,2.4-1.6v0.9h-0.1c-1.3,0-2.3,0.9-2.3,2.7V67.3z"/>
		
			<polygon style="display:inline;clip-path:url(#SVGID_00000127726486452186273370000000359125688801923987_);fill:#BE2F31;" points="
			175.5,66.2 177.1,61.4 178,61.4 175.9,67.4 175.1,67.4 173.5,62.7 171.9,67.4 171.2,67.4 169.1,61.4 170,61.4 171.6,66.2 
			173.2,61.4 173.9,61.4 		"/>
		<path style="display:inline;clip-path:url(#SVGID_00000127726486452186273370000000359125688801923987_);fill:#BE2F31;" d="
			M179.5,62.6l-0.3-0.7c0.6-0.3,1.3-0.5,2.1-0.5c1.6,0,2.5,0.8,2.5,2.4v3.6h-0.8v-0.9c-0.4,0.5-1.1,1-2.1,1c-1.1,0-2.2-0.6-2.2-1.8
			c0-1.3,1-1.9,2.5-1.9c0.8,0,1.3,0.1,1.8,0.2v-0.2c0-1.1-0.6-1.6-1.8-1.6C180.6,62.1,180.1,62.3,179.5,62.6 M179.6,65.6
			c0,0.8,0.7,1.2,1.5,1.2c1.1,0,2-0.7,2-1.6v-0.6c-0.4-0.1-1-0.2-1.7-0.2C180.3,64.3,179.6,64.8,179.6,65.6"/>
		<path style="display:inline;clip-path:url(#SVGID_00000127726486452186273370000000359125688801923987_);fill:#BE2F31;" d="
			M188.5,67.5c-0.5,1.2-1.1,1.7-2,1.7c-0.5,0-0.9-0.1-1.3-0.3l0.3-0.7c0.3,0.1,0.5,0.2,0.9,0.2c0.5,0,0.9-0.3,1.2-1.1l-2.7-5.9h1
			l2.1,4.9l1.9-4.9h0.9L188.5,67.5z"/>
	</g>
	<g>
		<defs>
			<rect id="SVGID_00000036970824667244585210000001775840680050944142_" x="0.3" y="11.5" width="200.1" height="57.7"/>
		</defs>
		<clipPath id="SVGID_00000044891763526364391850000013456510319887737263_">
			<use xlink:href="#SVGID_00000036970824667244585210000001775840680050944142_"  style="overflow:visible;"/>
		</clipPath>
		<path style="clip-path:url(#SVGID_00000044891763526364391850000013456510319887737263_);fill:#A5132A;" d="M2.5,26.8
			c1.2,0,2.2-1,2.2-2.2c0-1.2-1-2.2-2.2-2.2s-2.2,1-2.2,2.2C0.3,25.8,1.3,26.8,2.5,26.8"/>
		<path style="clip-path:url(#SVGID_00000044891763526364391850000013456510319887737263_);fill:#A5132A;" d="M8,51.6h25.4V11.5H8
			V51.6z M13.4,26.8c-1.2,0-2.2-1-2.2-2.2c0-1.2,1-2.2,2.2-2.2c1.2,0,2.2,1,2.2,2.2C15.5,25.8,14.6,26.8,13.4,26.8 M24.2,48.2
			c-1.2,0-2.2-1-2.2-2.2c0-1.2,1-2.2,2.2-2.2s2.2,1,2.2,2.2C26.3,47.2,25.4,48.2,24.2,48.2 M24.2,37.5c-1.2,0-2.2-1-2.2-2.2
			s1-2.2,2.2-2.2s2.2,1,2.2,2.2S25.4,37.5,24.2,37.5 M24.2,26.8c-1.2,0-2.2-1-2.2-2.2c0-1.2,1-2.2,2.2-2.2s2.2,1,2.2,2.2
			C26.3,25.8,25.4,26.8,24.2,26.8"/>
		<path style="clip-path:url(#SVGID_00000044891763526364391850000013456510319887737263_);fill:#A5132A;" d="M24.3,59
			c1.2,0,2.2-1,2.2-2.2c0-1.2-1-2.2-2.2-2.2s-2.2,1-2.2,2.2C22.2,58,23.1,59,24.3,59"/>
		<g style="clip-path:url(#SVGID_00000044891763526364391850000013456510319887737263_);">
			<polygon class="st6" points="48.3,39.5 50.3,39.5 50.3,51.2 48.6,51.2 42.2,42.9 42.2,51.2 40.1,51.2 40.1,39.5 42,39.5 
				48.3,47.6 			"/>
			<path class="st6" d="M58.5,51.2v-1.1c-0.6,0.7-1.5,1.3-2.9,1.3c-1.7,0-3.1-1-3.1-2.7v0c0-1.9,1.5-2.8,3.6-2.8
				c1.1,0,1.8,0.2,2.4,0.4v-0.2c0-1.2-0.8-1.9-2.2-1.9c-1,0-1.7,0.2-2.5,0.6L53.3,43c1-0.4,1.9-0.7,3.4-0.7c2.6,0,3.9,1.4,3.9,3.7
				v5.2H58.5z M58.5,47.5c-0.5-0.2-1.2-0.4-2-0.4c-1.3,0-2,0.5-2,1.4v0c0,0.8,0.8,1.3,1.7,1.3c1.3,0,2.3-0.8,2.3-1.9V47.5z"/>
			<path class="st6" d="M65.9,51.4c-1.3,0-2.6-0.5-3.7-1.3l0.9-1.4c1,0.7,2,1.1,2.9,1.1c0.9,0,1.4-0.4,1.4-1v0c0-0.7-0.9-0.9-2-1.2
				c-1.3-0.4-2.8-0.9-2.8-2.6v0c0-1.7,1.4-2.7,3.1-2.7c1.1,0,2.3,0.4,3.2,1l-0.8,1.4c-0.9-0.5-1.8-0.8-2.5-0.8
				c-0.8,0-1.2,0.4-1.2,0.9v0c0,0.6,1,0.9,2,1.2c1.3,0.4,2.7,1,2.7,2.6v0C69.2,50.5,67.8,51.4,65.9,51.4"/>
			<path class="st6" d="M73.4,42.4v8.9c0,1.8-0.9,2.6-2.6,2.6c-0.4,0-0.6,0-1-0.1v-1.6c0.2,0,0.4,0,0.6,0c0.6,0,1-0.3,1-1.1v-8.8
				H73.4z M71.3,39.1h2.2V41h-2.2V39.1z"/>
			<path class="st6" d="M80.2,51.4c-2.7,0-4.7-2.1-4.7-4.6c0-2.5,2-4.6,4.7-4.6c2.7,0,4.7,2.1,4.7,4.6
				C84.9,49.3,82.9,51.4,80.2,51.4 M80.2,44c-1.6,0-2.7,1.3-2.7,2.8c0,1.6,1.1,2.9,2.7,2.9c1.6,0,2.7-1.3,2.7-2.8
				C82.9,45.3,81.8,44,80.2,44"/>
			<path class="st6" d="M89,51.2h-2v-8.8h2v1.4c0.6-0.8,1.4-1.6,2.8-1.6c2,0,3.1,1.3,3.1,3.4v5.6h-2v-5c0-1.4-0.7-2.2-1.9-2.2
				c-1.2,0-2,0.8-2,2.2V51.2z"/>
			<path class="st6" d="M102.7,51.2v-1.1c-0.6,0.7-1.5,1.3-2.9,1.3c-1.7,0-3.1-1-3.1-2.7v0c0-1.9,1.5-2.8,3.6-2.8
				c1.1,0,1.8,0.2,2.4,0.4v-0.2c0-1.2-0.8-1.9-2.2-1.9c-1,0-1.7,0.2-2.5,0.6L97.5,43c1-0.4,1.9-0.7,3.4-0.7c2.6,0,3.9,1.4,3.9,3.7
				v5.2H102.7z M102.8,47.5c-0.5-0.2-1.2-0.4-2-0.4c-1.3,0-2,0.5-2,1.4v0c0,0.8,0.8,1.3,1.7,1.3c1.3,0,2.3-0.8,2.3-1.9V47.5z"/>
			<rect x="107.2" y="39" class="st6" width="2" height="12.2"/>
			<path class="st6" d="M116.9,51.4c-1.5,0-2.4-0.7-3-1.6v1.4h-2V39h2v4.8c0.7-0.9,1.6-1.7,3-1.7c2.1,0,4.1,1.7,4.1,4.6
				C121,49.7,119,51.4,116.9,51.4 M116.4,44c-1.4,0-2.6,1.1-2.6,2.8c0,1.7,1.2,2.8,2.6,2.8c1.4,0,2.5-1.1,2.5-2.8
				C119,45.1,117.8,44,116.4,44"/>
			<path class="st6" d="M123.1,39.1h2.2V41h-2.2V39.1z M123.2,42.4h2v8.8h-2V42.4z"/>
			<path class="st6" d="M132.9,51.4c-1.5,0-2.4-0.7-3-1.6v1.4h-2V39h2v4.8c0.7-0.9,1.6-1.7,3-1.7c2.1,0,4.1,1.7,4.1,4.6
				C137,49.7,135,51.4,132.9,51.4 M132.4,44c-1.4,0-2.6,1.1-2.6,2.8c0,1.7,1.2,2.8,2.6,2.8c1.4,0,2.5-1.1,2.5-2.8
				C134.9,45.1,133.8,44,132.4,44"/>
			<rect x="139.2" y="39" class="st6" width="2" height="12.2"/>
			<path class="st6" d="M143.8,39.1h2.2V41h-2.2V39.1z M143.9,42.4h2v8.8h-2V42.4z"/>
			<path class="st6" d="M152.8,51.4c-2.7,0-4.7-2.1-4.7-4.6c0-2.5,2-4.6,4.7-4.6c2.7,0,4.7,2.1,4.7,4.6
				C157.5,49.3,155.5,51.4,152.8,51.4 M152.8,44c-1.6,0-2.7,1.3-2.7,2.8c0,1.6,1.1,2.9,2.7,2.9c1.6,0,2.7-1.3,2.7-2.8
				C155.5,45.3,154.4,44,152.8,44"/>
			<path class="st6" d="M162,48.4c0,0.8,0.4,1.1,1.1,1.1c0.4,0,0.8-0.1,1.3-0.3v1.7c-0.5,0.3-1.1,0.5-1.8,0.5
				c-1.5,0-2.5-0.7-2.5-2.6v-4.6h-1.1v-1.7h1.1V40h2v2.4h2.4v1.7H162V48.4z"/>
			<path class="st6" d="M170.2,49.8c1,0,1.7-0.4,2.4-1.1l1.2,1.1c-0.8,1-2,1.7-3.6,1.7c-2.6,0-4.5-1.9-4.5-4.6
				c0-2.5,1.8-4.6,4.3-4.6c2.8,0,4.2,2.2,4.2,4.8c0,0.2,0,0.4,0,0.6h-6.5C167.9,49,168.9,49.8,170.2,49.8 M172.2,46.2
				c-0.1-1.3-0.9-2.3-2.2-2.3c-1.2,0-2.1,1-2.3,2.3H172.2z"/>
			<polygon class="st6" points="184.5,51.2 182.1,51.2 179.5,47.4 178.3,48.7 178.3,51.2 176.2,51.2 176.2,39 178.3,39 178.3,46.3 
				181.9,42.4 184.4,42.4 180.9,46 			"/>
			<path class="st6" d="M189.6,49.8c1,0,1.7-0.4,2.4-1.1l1.2,1.1c-0.8,1-2,1.7-3.6,1.7c-2.6,0-4.5-1.9-4.5-4.6
				c0-2.5,1.8-4.6,4.3-4.6c2.8,0,4.2,2.2,4.2,4.8c0,0.2,0,0.4,0,0.6h-6.5C187.3,49,188.3,49.8,189.6,49.8 M191.6,46.2
				c-0.1-1.3-0.9-2.3-2.2-2.3c-1.2,0-2.1,1-2.3,2.3H191.6z"/>
			<path class="st6" d="M198,48.4c0,0.8,0.4,1.1,1.1,1.1c0.5,0,0.8-0.1,1.3-0.3v1.7c-0.5,0.3-1.1,0.5-1.8,0.5
				c-1.5,0-2.5-0.7-2.5-2.6v-4.6h-1.1v-1.7h1.1V40h2v2.4h2.4v1.7H198V48.4z"/>
		</g>
	</g>
</g>
<g>
	<path class="st6" d="M47.3,59.1h1v9.1h-0.8l-5.9-7.5v7.5h-1v-9.1h1l5.7,7.3V59.1z"/>
	<path class="st6" d="M51.6,66.2c0.1,0.3,0.3,0.5,0.5,0.7s0.5,0.3,0.7,0.4s0.6,0.1,0.8,0.1c0.5,0,0.9-0.1,1.2-0.3
		c0.3-0.2,0.6-0.4,0.9-0.7l0.6,0.6c-0.3,0.4-0.7,0.7-1.2,0.9c-0.4,0.2-1,0.3-1.6,0.3c-0.5,0-0.9-0.1-1.3-0.3
		c-0.4-0.2-0.8-0.4-1.1-0.7c-0.3-0.3-0.5-0.7-0.7-1.1c-0.2-0.4-0.3-0.9-0.3-1.4c0-0.5,0.1-0.9,0.2-1.4s0.4-0.8,0.7-1.1
		c0.3-0.3,0.6-0.6,1-0.7c0.4-0.2,0.8-0.3,1.3-0.3c0.5,0,0.9,0.1,1.3,0.3c0.4,0.2,0.7,0.4,1,0.8c0.3,0.3,0.5,0.7,0.6,1.1
		c0.1,0.4,0.2,0.9,0.2,1.4c0,0,0,0.1,0,0.1s0,0.1,0,0.2h-5.3C51.4,65.6,51.4,65.9,51.6,66.2z M55.6,64.5c0-0.3-0.1-0.6-0.2-0.9
		s-0.2-0.5-0.4-0.7s-0.4-0.4-0.6-0.5c-0.3-0.1-0.5-0.2-0.9-0.2c-0.3,0-0.6,0.1-0.8,0.2c-0.2,0.1-0.5,0.3-0.7,0.5
		c-0.2,0.2-0.3,0.4-0.5,0.7s-0.2,0.6-0.2,0.9H55.6z"/>
	<path class="st6" d="M59.8,66.3c0,0.4,0.1,0.7,0.3,0.9c0.2,0.2,0.5,0.2,0.8,0.2c0.2,0,0.3,0,0.5-0.1c0.2,0,0.3-0.1,0.5-0.2V68
		c-0.2,0.1-0.4,0.2-0.6,0.2c-0.2,0-0.4,0.1-0.7,0.1c-0.3,0-0.5,0-0.8-0.1c-0.2-0.1-0.4-0.2-0.6-0.3c-0.2-0.2-0.3-0.3-0.4-0.6
		c-0.1-0.2-0.1-0.5-0.1-0.9v-4.1h-0.9v-0.9h0.9v-2h1v2h2.1v0.9h-2.1V66.3z"/>
	<path class="st6" d="M65,66.3c0,0.4,0.1,0.7,0.3,0.9c0.2,0.2,0.5,0.2,0.8,0.2c0.2,0,0.3,0,0.5-0.1c0.2,0,0.3-0.1,0.5-0.2V68
		c-0.2,0.1-0.4,0.2-0.6,0.2c-0.2,0-0.4,0.1-0.7,0.1c-0.3,0-0.5,0-0.8-0.1c-0.2-0.1-0.4-0.2-0.6-0.3c-0.2-0.2-0.3-0.3-0.4-0.6
		C64.1,67,64,66.7,64,66.4v-4.1h-0.9v-0.9H64v-2h1v2h2.1v0.9H65V66.3z"/>
	<path class="st6" d="M70.3,62.4c-0.3,0.1-0.6,0.2-1,0.4L69,61.9c0.4-0.2,0.7-0.3,1.1-0.4s0.8-0.1,1.3-0.1c0.9,0,1.6,0.2,2.1,0.7
		s0.7,1.1,0.7,2v4.1h-1v-1c-0.2,0.3-0.5,0.6-0.9,0.8s-0.9,0.4-1.5,0.4c-0.3,0-0.6,0-0.9-0.1c-0.3-0.1-0.6-0.2-0.8-0.4
		c-0.2-0.2-0.4-0.4-0.6-0.7c-0.1-0.3-0.2-0.6-0.2-0.9s0.1-0.7,0.2-0.9c0.1-0.3,0.3-0.5,0.6-0.7c0.3-0.2,0.6-0.3,0.9-0.4
		c0.4-0.1,0.7-0.1,1.2-0.1c0.4,0,0.8,0,1.1,0.1c0.3,0.1,0.6,0.1,0.9,0.2v-0.2c0-0.6-0.2-1.1-0.5-1.4s-0.8-0.5-1.5-0.5
		C70.9,62.3,70.6,62.3,70.3,62.4z M69.9,65.2c-0.3,0.3-0.5,0.6-0.5,1c0,0.2,0,0.4,0.1,0.6c0.1,0.2,0.2,0.3,0.4,0.4
		c0.2,0.1,0.3,0.2,0.5,0.3c0.2,0.1,0.4,0.1,0.6,0.1c0.3,0,0.6,0,0.9-0.1c0.3-0.1,0.5-0.2,0.7-0.4c0.2-0.2,0.4-0.4,0.5-0.6
		s0.2-0.5,0.2-0.7v-0.7c-0.3-0.1-0.5-0.1-0.9-0.2c-0.3-0.1-0.7-0.1-1.1-0.1C70.8,64.8,70.3,64.9,69.9,65.2z"/>
	<path class="st6" d="M77.4,68.2h-1v-6.7h1v1.8c0.1-0.3,0.3-0.5,0.5-0.8c0.2-0.2,0.4-0.4,0.6-0.6c0.2-0.2,0.5-0.3,0.8-0.4
		s0.6-0.1,0.9-0.1v1.1h-0.1c-0.4,0-0.7,0.1-1,0.2c-0.3,0.1-0.6,0.3-0.9,0.6c-0.2,0.3-0.4,0.6-0.6,1c-0.1,0.4-0.2,0.8-0.2,1.3V68.2z"
		/>
	<path class="st6" d="M87.7,68.2h-1.2l-2.4-3.1l-1.4,1.4v1.8h-1v-9.5h1v6.6l3.6-3.8h1.2l-2.8,2.9L87.7,68.2z"/>
	<path class="st6" d="M89.1,60v-1.1h1.1V60H89.1z M89.2,68.2v-6.7h1v6.7H89.2z"/>
	<path class="st6" d="M97.5,61.5h1.1l-2.9,6.8h-0.9l-2.9-6.8H93l2.3,5.6L97.5,61.5z"/>
	<path class="st6" d="M100.6,66.2c0.1,0.3,0.3,0.5,0.5,0.7s0.5,0.3,0.7,0.4s0.5,0.1,0.8,0.1c0.5,0,0.9-0.1,1.2-0.3
		c0.3-0.2,0.6-0.4,0.9-0.7l0.6,0.6c-0.3,0.4-0.7,0.7-1.2,0.9s-1,0.3-1.6,0.3c-0.5,0-0.9-0.1-1.3-0.3c-0.4-0.2-0.8-0.4-1.1-0.7
		c-0.3-0.3-0.5-0.7-0.7-1.1c-0.2-0.4-0.3-0.9-0.3-1.4c0-0.5,0.1-0.9,0.2-1.4s0.4-0.8,0.7-1.1c0.3-0.3,0.6-0.6,1-0.7
		c0.4-0.2,0.8-0.3,1.3-0.3c0.5,0,0.9,0.1,1.3,0.3c0.4,0.2,0.7,0.4,1,0.8c0.3,0.3,0.5,0.7,0.6,1.1c0.1,0.4,0.2,0.9,0.2,1.4
		c0,0,0,0.1,0,0.1s0,0.1,0,0.2h-5.3C100.4,65.6,100.5,65.9,100.6,66.2z M104.7,64.5c0-0.3-0.1-0.6-0.2-0.9c-0.1-0.3-0.2-0.5-0.4-0.7
		c-0.2-0.2-0.4-0.4-0.6-0.5c-0.3-0.1-0.5-0.2-0.9-0.2c-0.3,0-0.6,0.1-0.8,0.2c-0.2,0.1-0.5,0.3-0.7,0.5c-0.2,0.2-0.3,0.4-0.5,0.7
		s-0.2,0.6-0.2,0.9H104.7z"/>
	<path class="st6" d="M108.8,66.3c0,0.4,0.1,0.7,0.3,0.9c0.2,0.2,0.5,0.2,0.8,0.2c0.2,0,0.3,0,0.5-0.1c0.2,0,0.3-0.1,0.5-0.2V68
		c-0.2,0.1-0.4,0.2-0.6,0.2c-0.2,0-0.4,0.1-0.7,0.1c-0.3,0-0.5,0-0.8-0.1c-0.2-0.1-0.4-0.2-0.6-0.3s-0.3-0.3-0.4-0.6
		c-0.1-0.2-0.1-0.5-0.1-0.9v-4.1h-0.9v-0.9h0.9v-2h1v2h2.1v0.9h-2.1V66.3z"/>
</g>
</svg>
